<?xml version="1.0" encoding="UTF-8"?>
<svg version="1.1" xmlns="http://www.w3.org/2000/svg" width="948" height="290">
<path d="M0 0 C16.61568195 15.33755257 21.92476977 36.91913089 23.03071213 58.72012711 C23.29784653 67.34319214 23.3054895 75.96751694 23.29137683 84.59380174 C23.28823986 87.56408609 23.2944246 90.53432485 23.30041558 93.50460261 C23.31433217 100.50839855 23.31300067 107.51207208 23.30151367 114.51586914 C23.28996845 121.71388737 23.30424391 128.91153577 23.33091015 136.10950547 C23.35309114 142.33253414 23.35970139 148.55544681 23.35383373 154.77851218 C23.3504779 158.47743541 23.35279061 162.17612009 23.37008476 165.87500954 C23.38847909 169.98567835 23.37434254 174.09562471 23.35717773 178.20629883 C23.3668457 179.41624512 23.37651367 180.62619141 23.38647461 181.87280273 C23.32581689 188.81172908 22.60617529 193.37298362 18.85546875 199.265625 C14.41384513 203.59336084 9.89120786 205.41913152 3.7457428 205.77619934 C2.73583408 205.83902603 1.72592537 205.90185272 0.68541336 205.96658325 C-0.96472197 206.05623856 -0.96472197 206.05623856 -2.64819336 206.14770508 C-4.4049407 206.25327477 -4.4049407 206.25327477 -6.19717789 206.36097717 C-9.42613778 206.55332561 -12.65542718 206.73808736 -15.88501143 206.91959214 C-19.32965282 207.11502836 -22.77371197 207.32025181 -26.21784973 207.52433777 C-32.87217676 207.91713536 -39.52698443 208.30109723 -46.18200189 208.68199795 C-53.83443558 209.12035168 -61.4863323 209.56774175 -69.138201 210.01583314 C-81.36030707 210.73138803 -93.58272057 211.44147752 -105.80542731 212.14669394 C-120.42743006 212.99034627 -135.04862705 213.84673602 -149.6691761 214.71527672 C-155.66766106 215.07137643 -161.66626066 215.42553762 -167.66486645 215.77959538 C-172.20329158 216.04746881 -176.74168516 216.31584505 -181.27999878 216.58560181 C-185.44925525 216.83318367 -189.61867545 217.07779952 -193.78824425 217.32006264 C-195.27192811 217.4067213 -196.7555553 217.49435748 -198.23911476 217.58312035 C-221.89733763 218.99696268 -221.89733763 218.99696268 -227.14453125 215.265625 C-231.92369308 210.59760647 -235.78577085 206.27665552 -236.40180016 199.38929462 C-236.40515184 198.32587943 -236.40850353 197.26246424 -236.41195679 196.16682434 C-236.42048676 194.9406691 -236.42901672 193.71451385 -236.43780518 192.45120239 C-236.43710617 191.10003649 -236.43618312 189.74887069 -236.43505859 188.39770508 C-236.44104647 186.96805979 -236.44785262 185.53841774 -236.45541382 184.10877991 C-236.47307158 180.22780856 -236.47776958 176.34692546 -236.47904539 172.46591783 C-236.48046962 170.03366769 -236.48474475 167.60143978 -236.49003983 165.16919518 C-236.50855133 156.66104087 -236.51671053 148.15294916 -236.51513672 139.64477539 C-236.5139405 131.75430887 -236.53493721 123.8641182 -236.56662405 115.97372133 C-236.59294491 109.17338254 -236.60349719 102.37313281 -236.6022259 95.57274359 C-236.60172014 91.52337595 -236.60718384 87.47425255 -236.628582 83.42493629 C-236.75198251 58.30919346 -236.61506977 35.24297368 -219.14453125 15.265625 C-218.61214844 14.63914062 -218.07976562 14.01265625 -217.53125 13.3671875 C-210.2924485 5.45460734 -200.22665222 1.35866506 -190.14453125 -1.734375 C-189.41492188 -1.96125 -188.6853125 -2.188125 -187.93359375 -2.421875 C-168.76301378 -7.26496889 -149.01558421 -3.25137924 -132.14453125 6.265625 C-130.91280486 7.07423927 -129.68300222 7.88581102 -128.45703125 8.703125 C-123.74706261 10.92480832 -119.26791279 11.07457998 -114.14453125 10.265625 C-108.83506134 8.22997844 -105.86549415 5.10816085 -102.14453125 1.015625 C-76.88562701 -25.38126551 -27.00761021 -21.84222028 0 0 Z M-70.95703125 15.765625 C-81.69030576 29.25816112 -81.46539184 47.49532108 -81.48046875 63.87890625 C-81.48691353 65.545101 -81.49364307 67.21129467 -81.50064087 68.87748718 C-81.5125236 72.34421414 -81.51633039 75.81084205 -81.51513672 79.27758789 C-81.51493246 83.70352819 -81.54238424 88.12883413 -81.57668114 92.5546236 C-81.59897261 95.98543692 -81.6029738 99.41609702 -81.60191727 102.84697533 C-81.60426406 104.47875367 -81.61303519 106.11053684 -81.628582 107.74224281 C-81.90051871 119.62764053 -81.90051871 119.62764053 -77.14453125 130.265625 C-75.07908231 132.23987369 -75.07908231 132.23987369 -73.14453125 133.265625 C-73.304375 131.9765625 -73.46421875 130.6875 -73.62890625 129.359375 C-74.40695528 121.5126678 -74.38859061 113.64311335 -74.39453125 105.765625 C-74.39520599 104.96193481 -74.39588074 104.15824463 -74.39657593 103.3302002 C-74.38107258 91.7151468 -74.0727496 80.56690145 -71.14453125 69.265625 C-70.9729248 68.58741699 -70.80131836 67.90920898 -70.62451172 67.21044922 C-67.19590973 54.00159921 -62.26344665 41.76075732 -51.33203125 33.015625 C-46.88395938 30.57354632 -42.97339616 29.67475303 -38.03125 30.70703125 C-29.45176223 33.53454605 -24.6183269 40.77844515 -20.14453125 48.265625 C-7.61412829 73.94777321 -7.54904193 105.52899309 -11.14453125 133.265625 C-6.75705953 130.30111708 -4.68595889 127.26026838 -3.14453125 122.265625 C-2.69646726 118.56605401 -2.69646726 118.56605401 -2.75634766 114.65649414 C-2.7510907 113.93014771 -2.74583374 113.20380127 -2.74041748 112.45544434 C-2.72729129 110.07033307 -2.7359373 107.68589856 -2.74609375 105.30078125 C-2.74406892 103.62275568 -2.74115409 101.94473096 -2.73739624 100.26670837 C-2.73298117 96.7505556 -2.73937017 93.23463191 -2.75341797 89.71850586 C-2.7703904 85.25738221 -2.76074001 80.79680494 -2.74270058 76.33570194 C-2.73173823 72.86679651 -2.73536734 69.39801543 -2.74308395 65.92910576 C-2.74505803 64.28721487 -2.7427273 62.64531194 -2.73564529 61.00343513 C-2.6810895 44.78310804 -3.23085911 25.50776732 -14.95703125 13.0234375 C-29.8746024 1.03610354 -57.45032014 1.90809023 -70.95703125 15.765625 Z M-198.14453125 25.265625 C-199.44390625 26.1009375 -199.44390625 26.1009375 -200.76953125 26.953125 C-208.25750909 34.24405079 -210.87096759 44.55436889 -211.28497314 54.71104431 C-211.29180115 55.91491287 -211.29862915 57.11878143 -211.30566406 58.35913086 C-211.31062897 59.03005264 -211.31559387 59.70097443 -211.32070923 60.39222717 C-211.33518799 62.58831851 -211.34210721 64.78433774 -211.34765625 66.98046875 C-211.35048363 67.7363434 -211.353311 68.49221806 -211.35622406 69.270998 C-211.37115529 73.26782702 -211.38042418 77.26462049 -211.38476562 81.26147461 C-211.39025454 85.37134753 -211.41430863 89.4808899 -211.44273758 93.59065914 C-211.46142831 96.76926102 -211.46657287 99.94778406 -211.4681015 103.12643623 C-211.47111188 104.64098488 -211.47908535 106.15553268 -211.49228668 107.67002678 C-211.68612246 118.83813524 -211.68612246 118.83813524 -208.14453125 129.265625 C-207.15453125 129.925625 -206.16453125 130.585625 -205.14453125 131.265625 C-205.12994873 130.51168457 -205.11536621 129.75774414 -205.1003418 128.98095703 C-203.90307149 73.39884641 -203.90307149 73.39884641 -186.30859375 54.26953125 C-182.59131478 50.98467045 -179.54191475 49.86453219 -174.58203125 49.640625 C-168.53887745 50.02458229 -164.69580303 51.53166956 -160.5625 55.9609375 C-144.14107579 76.49811107 -143.67039396 104.26245092 -143.14453125 129.265625 C-140.89673375 127.21328815 -140.14230705 126.25895239 -139.14453125 123.265625 C-139.03918292 120.88119759 -138.99580721 118.49389899 -138.98339844 116.10717773 C-138.97843353 115.38153122 -138.97346863 114.6558847 -138.96835327 113.9082489 C-138.95373976 111.50522918 -138.94692864 109.10227563 -138.94140625 106.69921875 C-138.93565117 105.02352396 -138.92989348 103.34782917 -138.9241333 101.6721344 C-138.91362358 98.15405979 -138.9077817 94.63600802 -138.90429688 91.11791992 C-138.89883264 86.63148279 -138.8748492 82.1453523 -138.84632492 77.65901089 C-138.82760122 74.19380343 -138.82248764 70.72866813 -138.820961 67.26341438 C-138.81795244 65.61096597 -138.80998534 63.95851827 -138.79677582 62.30611992 C-138.70060111 49.3429674 -139.47699865 37.5465602 -148.70703125 27.578125 C-156.5761316 20.29192097 -165.83977235 17.91994163 -176.359375 18.046875 C-184.30637726 18.67104348 -191.54027639 20.81786152 -198.14453125 25.265625 Z M-51.14453125 61.265625 C-61.03612097 76.84139586 -60.94466468 98.90883581 -57.14453125 116.265625 C-54.07314926 127.82012609 -54.07314926 127.82012609 -46.14453125 136.265625 C-42.66969866 136.71886403 -40.7134658 136.5570305 -37.58203125 134.953125 C-26.33763672 122.55545923 -26.30831619 103.5547441 -26.98046875 87.80957031 C-27.63956968 77.58958264 -30.17015296 64.53175959 -38.1875 57.46484375 C-43.46283482 54.23225335 -47.54652927 56.94612394 -51.14453125 61.265625 Z M-181.50390625 77.33203125 C-189.9633885 87.30213533 -190.8251095 103.77090631 -190.14453125 116.265625 C-189.10862724 127.54255468 -187.3839443 138.30346561 -179.70703125 147.0234375 C-177.83427603 148.5122779 -176.51496133 148.98265781 -174.14453125 149.265625 C-168.78547907 146.87115488 -166.62445077 143.48154316 -164.24609375 138.203125 C-158.0134719 121.58280006 -157.63351725 100.83805754 -164.3515625 84.29296875 C-167.55730442 77.5488939 -167.55730442 77.5488939 -173.39453125 73.203125 C-177.19864392 73.28958211 -178.78618952 74.77383268 -181.50390625 77.33203125 Z " fill="#D6FF38" transform="translate(720.14453125,43.734375)"/>
<path d="M0 0 C0.89110474 -0.0038269 1.78220947 -0.00765381 2.70031738 -0.01159668 C4.57968275 -0.01431217 6.45908615 -0.0069764 8.33837891 0.00976562 C11.20951873 0.03118114 14.07815644 0.00995239 16.94921875 -0.015625 C18.77865134 -0.01298166 20.60808237 -0.00785655 22.4375 0 C23.29283325 -0.00809692 24.1481665 -0.01619385 25.02941895 -0.02453613 C26.23592102 -0.00562317 26.23592102 -0.00562317 27.46679688 0.01367188 C28.52006165 0.01844543 28.52006165 0.01844543 29.59460449 0.02331543 C32.75690639 0.7794983 34.43376513 2.25391394 36.71875 4.53125 C37.55677795 6.94920349 37.55677795 6.94920349 37.87524414 9.82983398 C38.08299973 11.56932816 38.08299973 11.56932816 38.29495239 13.34396362 C38.43658368 14.73968872 38.57781774 16.13545415 38.71875 17.53125 C38.90575051 19.21128338 39.09440664 20.89113299 39.28439331 22.5708313 C39.83839771 27.54094612 40.36048286 32.51399595 40.87566948 37.4882679 C41.22103945 40.81355975 41.57194291 44.13822419 41.92457581 47.4627533 C42.92602529 56.90484419 43.92473475 66.34718027 44.90258789 75.79174805 C45.50348034 81.59154149 46.11665557 87.38992187 46.73799324 93.18755913 C46.97182364 95.39151438 47.20103469 97.59596481 47.4255352 99.80088997 C47.73877451 102.87260902 48.06761868 105.94228079 48.40014648 109.01196289 C48.53354179 110.37639275 48.53354179 110.37639275 48.66963196 111.76838684 C49.23807321 117.78547786 49.23807321 117.78547786 52.71875 122.53125 C56.21875 123.19791667 56.21875 123.19791667 59.71875 122.53125 C62.31805929 119.81275229 63.1337984 117.64898167 63.5216217 113.95254517 C63.67492699 112.58158943 63.67492699 112.58158943 63.83132935 111.18293762 C63.92961029 110.1875145 64.02789124 109.19209137 64.12915039 108.16650391 C64.24341873 107.11241837 64.35768707 106.05833282 64.47541809 104.9723053 C64.85069597 101.48527182 65.20831914 97.99664947 65.56640625 94.5078125 C65.82507568 92.08395777 66.08505778 89.6602428 66.34629822 87.23666382 C67.03187042 80.85156449 67.70341456 74.46507551 68.37091064 68.07806396 C69.43987794 57.86142059 70.52507859 47.64652971 71.619627 37.43259811 C71.99917792 33.86475954 72.36976099 30.29606856 72.73951721 26.72720337 C72.97194381 24.53636378 73.2046701 22.34555596 73.43774414 20.15478516 C73.53804932 19.16341049 73.63835449 18.17203583 73.74169922 17.15061951 C74.99459018 5.55745826 74.99459018 5.55745826 78.29492188 1.67895508 C81.94480645 -0.04929909 85.54445929 0.12353621 89.5 0.16796875 C90.35049927 0.16747025 91.20099854 0.16697174 92.07727051 0.16645813 C93.87266378 0.16879513 95.66806055 0.17850163 97.46337891 0.19506836 C100.20895739 0.21866584 102.95356456 0.2156259 105.69921875 0.20898438 C107.44531828 0.21456134 109.19141373 0.22167133 110.9375 0.23046875 C111.75738403 0.22955734 112.57726807 0.22864594 113.42199707 0.22770691 C120.88847394 0.32042562 120.88847394 0.32042562 123.71875 2.53125 C129.08177366 11.21149193 123.12324918 27.9244906 121.53173828 37.54736328 C121.2011705 39.56386209 120.87092824 41.58041428 120.54098511 43.59701538 C119.64801118 49.04784276 118.74996138 54.49782189 117.85056162 59.94759226 C117.09877353 64.50514936 116.3492104 69.06307138 115.59955204 73.62097919 C113.83073788 84.37441128 112.0575079 95.12710905 110.28173828 105.87939453 C108.45200857 116.95901386 106.63070254 128.03999541 104.81336033 139.12165272 C103.25001207 148.65232144 101.68096422 158.18204032 100.10746562 167.71103847 C99.16892398 173.39531997 98.23263785 179.07994996 97.30203629 184.76553726 C96.42704529 190.11005746 95.54494482 195.45335662 94.65742874 200.7958107 C94.33359928 202.75248455 94.01226968 204.70957407 93.69367218 206.66710663 C93.25714193 209.34673009 92.81146472 212.02468154 92.36355591 214.7024231 C92.24068431 215.47023955 92.11781271 216.23805601 91.99121773 217.02913964 C91.09831519 222.2853132 90.04104169 227.70198925 87.71875 232.53125 C84.33073959 234.78992361 83.10998935 234.79569695 79.13330078 234.83764648 C77.98846222 234.85363388 76.84362366 234.86962128 75.66409302 234.88609314 C74.42658295 234.89145584 73.18907288 234.89681854 71.9140625 234.90234375 C70.6427951 234.91137222 69.37152771 234.9204007 68.06173706 234.92970276 C65.36995279 234.94422399 62.67859348 234.95389172 59.98681641 234.95678711 C56.5442933 234.96216891 53.10294483 234.99983946 49.66075325 235.04553127 C46.37025954 235.08250046 43.079736 235.08381802 39.7890625 235.08984375 C38.55560089 235.10937607 37.32213928 235.12890839 36.05130005 235.14903259 C34.90015717 235.14295486 33.74901428 235.13687714 32.56298828 235.13061523 C31.04767014 235.13822121 31.04767014 235.13822121 29.5017395 235.14598083 C25.6327995 234.29137584 24.26074455 232.52690218 21.71875 229.53125 C20.70698166 226.5652771 20.70698166 226.5652771 20.15301514 223.21240234 C19.93196609 221.93585785 19.71091705 220.65931335 19.48316956 219.34408569 C19.26021779 217.93517842 19.03765086 216.5262102 18.81542969 215.1171875 C18.56502653 213.62581592 18.31283752 212.13474327 18.05900574 210.64395142 C17.37324234 206.5858208 16.7125499 202.52395578 16.05607891 198.46099854 C15.35564736 194.15383853 14.63189705 189.85059838 13.91070557 185.546875 C12.53837426 177.33608972 11.1865653 169.12206372 9.84220147 160.90665817 C8.19967795 150.87502691 6.53174319 140.84765618 4.86328125 130.8203125 C3.10087644 120.22365057 1.34167414 109.62649772 -0.40124512 99.02661133 C-2.92975901 83.65533287 -5.47442132 68.28846569 -8.14648438 52.94140625 C-8.3634132 51.69015961 -8.58034203 50.43891296 -8.80384445 49.14974976 C-9.78395379 43.49923111 -10.7728944 37.85061356 -11.78131104 32.20507812 C-15.53296094 10.91077519 -15.53296094 10.91077519 -14.28125 4.53125 C-10.71565938 -0.51426023 -5.69012496 -0.05386498 0 0 Z " fill="#D6FF38" transform="translate(34.28125,26.46875)"/>
<path d="M0 0 C15.38511739 14.16759011 19.33081823 33.23880031 20.3125 53.3125 C-9.77197018 54.29850306 -9.77197018 54.29850306 -22.6875 42.3125 C-27.31352181 37.74243813 -30.66396341 33.02204226 -33.546875 27.1953125 C-34.69359162 25.00204905 -34.69359162 25.00204905 -37.6875 23.3125 C-42.72332221 22.64209642 -47.22020906 22.53393746 -51.75 24.9375 C-56.94701002 31.30802841 -56.35059396 39.52760468 -55.6875 47.3125 C-52.10171899 64.44723877 -33.54824629 74.82109718 -20.21411133 84.171875 C-0.84378667 97.76779579 16.89376941 114.20039806 21.6875 138.4765625 C24.90596903 159.5154751 23.49027816 181.34911077 11.3125 199.3125 C0.91882023 212.11836484 -13.87557557 218.86929963 -30.046875 220.99609375 C-50.82982575 222.80233732 -70.74827949 220.56139033 -87.6875 207.3125 C-104.51363303 193.04439395 -109.69418727 172.45325472 -111.6875 151.3125 C-111.72884046 149.3129273 -111.74905915 147.31155239 -111.6875 145.3125 C-98.75692682 142.40253435 -85.81893408 144.73685062 -74.421875 151.390625 C-66.52844128 156.93858127 -60.69170764 163.74388431 -56.00390625 172.14453125 C-53.18572313 176.7857527 -50.21527543 178.91177202 -44.875 180.3125 C-40.17324014 180.6205151 -35.81135536 179.5919306 -31.6875 177.3125 C-30.06417665 174.92461213 -30.06417665 174.92461213 -29.6875 172.3125 C-29.3575 171.3225 -29.0275 170.3325 -28.6875 169.3125 C-27.78717971 155.48298993 -29.07458061 145.7115192 -38.3046875 134.8125 C-45.17768995 127.60148104 -53.21933689 121.84617997 -61.32788086 116.13061523 C-81.47680519 101.89824086 -100.24813991 86.06963746 -105.31640625 60.59375 C-108.27249611 42.42157654 -106.67787282 26.06686913 -96.6875 10.3125 C-87.20369099 -2.7834309 -74.2227297 -9.38731622 -58.515625 -12.26953125 C-37.69012841 -14.54333547 -17.09044579 -13.29682666 0 0 Z " fill="#D6FF38" transform="translate(336.6875,40.6875)"/>
<path d="M0 0 C5.97732771 -0.09931654 11.9541688 -0.17167995 17.93212891 -0.21972656 C19.96313857 -0.23976836 21.99409106 -0.26700947 24.02490234 -0.30175781 C26.95424556 -0.35060414 29.882822 -0.37304343 32.8125 -0.390625 C33.71178223 -0.41127014 34.61106445 -0.43191528 35.53759766 -0.45318604 C41.48934262 -0.45527622 46.13772155 0.40712995 51 4 C54.8195053 8.36403205 55.91119738 12.8000115 56.83203125 18.390625 C56.9892012 19.27445862 57.14637115 20.15829224 57.30830383 21.06890869 C57.88951728 24.37649497 58.44507477 27.68790152 59 31 C59.2417426 32.42316788 59.48393301 33.84625975 59.72650146 35.26928711 C62.04894325 48.90046544 64.32305243 62.53968922 66.59008789 76.18017578 C67.3175183 80.55562525 68.04881563 84.9304141 68.78251076 89.3048172 C69.05955497 90.9616373 69.33505484 92.61871641 69.60898399 94.27605438 C69.98790209 96.5684467 70.37167771 98.85997525 70.7565918 101.15136719 C70.86827194 101.83478683 70.97995209 102.51820648 71.09501648 103.22233582 C71.42886476 106.3881337 71.42886476 106.3881337 73 109 C73.19156677 107.8025415 73.38313354 106.60508301 73.58050537 105.37133789 C75.39030258 94.06958294 77.2139843 82.77014422 79.05117416 71.47280884 C79.99517807 65.66509534 80.93432575 59.85668409 81.86230469 54.04638672 C82.75855491 48.43590686 83.66765296 42.82764538 84.58557892 37.22067261 C84.9330002 35.08447833 85.27583812 32.94753327 85.61394501 30.80984497 C86.08945147 27.80859502 86.58140024 24.81046346 87.07714844 21.8125 C87.21237915 20.93424057 87.34760986 20.05598114 87.48693848 19.15110779 C88.48976664 13.23132965 89.83068913 6.4537493 94.8129158 2.59640121 C99.97857916 -0.45619571 105.11139053 -0.5284468 110.96875 -0.390625 C111.88966431 -0.38496521 112.81057861 -0.37930542 113.75939941 -0.37347412 C116.67348307 -0.35125236 119.58629397 -0.30108383 122.5 -0.25 C124.48696129 -0.2299166 126.47394204 -0.21166906 128.4609375 -0.1953125 C133.30777499 -0.1514343 138.15367242 -0.08250689 143 0 C140.38752513 11.44321337 137.50179494 22.77760193 134.359375 34.0859375 C133.91486027 35.69506525 133.4706603 37.30427999 133.02674866 38.91357422 C132.08871276 42.31237045 131.14889484 45.71066648 130.20767212 49.10858154 C128.73112901 54.4404346 127.26078414 59.77398455 125.79174805 65.10791016 C125.29478827 66.91207988 124.79782477 68.71624858 124.30085754 70.52041626 C123.93160628 71.8609651 123.93160628 71.8609651 123.5548954 73.22859573 C122.3170755 77.72159879 121.07831037 82.21434106 119.83935547 86.70703125 C119.59904885 87.57846079 119.35874224 88.44989033 119.1111536 89.34772682 C117.76495398 94.22874014 116.41735218 99.10936352 115.06857109 103.98966408 C112.98159231 111.54124353 110.90300895 119.09505285 108.83435059 126.65167236 C108.16246917 129.09981369 107.48735029 131.54706921 106.80871582 133.99334717 C101.0677642 154.6945942 97.02139194 174.60457879 96.68359375 196.1328125 C96.66494263 197.12531006 96.6462915 198.11780762 96.6270752 199.14038086 C96.55944669 202.80184131 96.49887416 206.46342937 96.4375 210.125 C96.293125 218.33375 96.14875 226.5425 96 235 C79.5 235 63 235 46 235 C45.6875 210.4375 45.6875 210.4375 45.61206055 202.84545898 C45.31749959 181.25581205 42.76722409 160.99639084 37.0625 140.1875 C36.55038332 138.2757962 36.03953217 136.36375304 35.52978516 134.45141602 C34.05072618 128.92032071 32.55146169 123.39485269 31.04974365 117.86987305 C29.90846923 113.66673985 28.77532272 109.46142953 27.64306641 105.25585938 C27.43850043 104.49604861 27.23393446 103.73623785 27.02316952 102.95340252 C26.60114512 101.38580003 26.17913263 99.81819433 25.75713158 98.25058556 C22.36211237 85.64174555 18.95673133 73.0357376 15.53943825 60.43291664 C14.93310536 58.19620195 14.32728786 55.95934824 13.72160339 53.72245789 C11.78038556 46.55509932 9.83451687 39.3890742 7.87636375 32.22632122 C6.9362482 28.78544493 5.99904862 25.34377797 5.06225967 21.90199471 C4.61231129 20.25183155 4.16100257 18.60203866 3.70827866 16.95263481 C3.08220193 14.67124654 2.46075988 12.38864276 1.84033203 10.10571289 C1.65297108 9.42764399 1.46561012 8.74957508 1.27257156 8.05095863 C0.51936683 5.26368754 0 2.90402809 0 0 Z " fill="#D6FF38" transform="translate(350,27)"/>
<path d="M0 0 C0.84292603 -0.0038269 1.68585205 -0.00765381 2.55432129 -0.01159668 C4.32935792 -0.01430816 6.10443502 -0.00700057 7.87939453 0.00976562 C10.58587294 0.03118765 13.28969723 0.00993951 15.99609375 -0.015625 C17.72656832 -0.01298159 19.45704125 -0.00785632 21.1875 0 C21.99078735 -0.00809692 22.79407471 -0.01619385 23.6217041 -0.02453613 C28.89780045 0.06288212 31.90463645 1.05033376 36.09375 4.53125 C40.64894445 10.31757808 41.21723554 14.91742795 41.22505188 22.12167358 C41.22716759 22.77029157 41.22928331 23.41890956 41.23146313 24.08718264 C41.23743705 26.25263762 41.23646486 28.41803389 41.2355957 30.58349609 C41.2386289 32.13935952 41.24215081 33.69522206 41.24612427 35.25108337 C41.25400079 38.59808831 41.25915346 41.94508264 41.26241493 45.29209518 C41.26833503 50.58722937 41.28488445 55.88229671 41.30375671 61.17739868 C41.31009371 62.99163624 41.31641934 64.80587383 41.32273388 66.62011147 C41.32589969 67.52854907 41.3290655 68.43698668 41.33232725 69.3729527 C41.3743761 81.69719109 41.40738402 94.02139774 41.41967773 106.34570312 C41.42806033 114.66379933 41.45055616 122.9817293 41.4890334 131.29974234 C41.5087831 135.69916671 41.52120215 140.09834265 41.51619911 144.49781418 C41.51154973 148.63644266 41.52537359 152.77460008 41.55321121 156.91313362 C41.56011743 158.42921083 41.56025564 159.9453368 41.55301094 161.46141243 C41.36364146 172.19741769 41.36364146 172.19741769 46.09375 181.53125 C51.48302041 185.69258538 58.08008196 184.97853824 64.59375 185.03125 C79.47337837 185.15166318 79.47337837 185.15166318 84.73828125 190.06640625 C89.47097004 196.25530697 89.33608914 200.13839335 89.40625 207.78125 C89.44975586 209.33779297 89.44975586 209.33779297 89.49414062 210.92578125 C89.54566295 217.13223975 89.31150123 220.85075987 85.09375 225.53125 C79.42207112 229.8139463 75.27705841 230.68196894 68.33691406 230.69238281 C67.54792725 230.69734772 66.75894043 230.70231262 65.94604492 230.70742798 C63.33381275 230.72204147 60.72164135 230.72885096 58.109375 230.734375 C56.29197183 230.74012801 54.47456867 230.74588573 52.65716553 230.75164795 C48.84403196 230.76215623 45.03091945 230.76799974 41.21777344 230.77148438 C36.34094312 230.77696259 31.4643929 230.80097693 26.5876503 230.82945633 C22.83175861 230.84811842 19.07593383 230.85329025 15.31999969 230.85482025 C13.52272768 230.85784026 11.72545666 230.86584675 9.92823029 230.87900543 C7.40799432 230.8961375 4.88843528 230.89416818 2.36816406 230.88769531 C1.63128357 230.8969101 0.89440308 230.90612488 0.13519287 230.9156189 C-5.4875785 230.87057874 -10.33952791 229.79295803 -14.6484375 225.99609375 C-18.51813244 220.77867747 -19.05489512 217.82763089 -19.05342102 211.44136047 C-19.05709771 210.59521169 -19.0607744 209.74906291 -19.0645625 208.87727326 C-19.07562698 206.02535387 -19.07944787 203.17347088 -19.08325195 200.3215332 C-19.08951456 198.28335961 -19.09616117 196.24518717 -19.10316467 194.20701599 C-19.12059424 188.65725861 -19.13113194 183.10750985 -19.1393702 177.55773187 C-19.14451661 174.09188896 -19.15059253 170.62604875 -19.15688133 167.16020775 C-19.17593956 156.32076815 -19.19016889 145.48133538 -19.1984933 134.64188224 C-19.20826658 122.12171023 -19.23458593 109.60171497 -19.27499419 97.08160526 C-19.30513905 87.41019645 -19.31996067 77.73883835 -19.32327431 68.06738347 C-19.32562682 62.28850325 -19.33461331 56.50981173 -19.35973549 50.73098183 C-19.38299231 45.29320149 -19.38725894 39.8557344 -19.37697411 34.41791725 C-19.37647804 32.42288675 -19.38281919 30.42784096 -19.39653015 28.43285751 C-19.41421541 25.70688177 -19.40715949 22.98203423 -19.39399719 20.25605774 C-19.40496644 19.46849462 -19.41593568 18.68093151 -19.42723733 17.86950284 C-19.36268478 12.32329838 -18.06076744 9.11280271 -14.90625 4.53125 C-10.09914838 0.24006646 -6.14444397 -0.06193437 0 0 Z " fill="#D6FF38" transform="translate(838.90625,26.46875)"/>
<path d="M0 0 C0.82072998 -0.00524185 1.64145996 -0.0104837 2.48706055 -0.0158844 C4.21499505 -0.0222818 5.94297323 -0.02099727 7.67089844 -0.01245117 C10.30482884 -0.00393106 12.93659538 -0.03274824 15.5703125 -0.06445312 C17.25520769 -0.06606521 18.94010669 -0.06548747 20.625 -0.0625 C21.79712036 -0.07935097 21.79712036 -0.07935097 22.99291992 -0.09654236 C28.21169171 -0.03047073 31.170478 0.99395855 35.3125 4.43359375 C39.6656795 10.19861526 40.46081037 14.4039382 40.45294189 21.45391846 C40.45591302 22.2805039 40.45888414 23.10708934 40.4619453 23.95872283 C40.47064175 26.73844257 40.47214135 29.51811929 40.47363281 32.29785156 C40.47826034 34.28691195 40.48328491 36.27597145 40.48867798 38.26502991 C40.50181084 43.67630638 40.50824874 49.08757044 40.51268864 54.49886036 C40.51561812 57.87877635 40.5197227 61.25868893 40.52419281 64.63860321 C40.53787048 75.21107348 40.54753565 85.78353598 40.5513947 96.35601449 C40.55587535 108.56485267 40.57342249 120.77357888 40.6023953 132.98238301 C40.62400598 142.41602281 40.63409867 151.8496311 40.63543582 161.28329539 C40.63648434 166.91904294 40.64240225 172.55468529 40.66025543 178.1904068 C40.67672529 183.49273622 40.67889683 188.79488123 40.67011642 194.0972271 C40.66934545 196.0422636 40.67369665 197.98730997 40.68357468 199.93232155 C40.69628033 202.59021215 40.69042488 205.24744827 40.67999268 207.90533447 C40.68804908 208.67276073 40.69610548 209.44018698 40.70440602 210.23086858 C40.65111595 216.04695464 39.54427535 220.88734096 35.59375 225.39453125 C34.71203125 226.09449219 34.71203125 226.09449219 33.8125 226.80859375 C32.93078125 227.53175781 32.93078125 227.53175781 32.03125 228.26953125 C28.22836139 230.84512399 24.27235853 230.62555407 19.86328125 230.671875 C19.13183395 230.67994675 18.40038666 230.68801849 17.64677429 230.69633484 C16.09762935 230.71015738 14.54845419 230.72088772 12.99926758 230.72875977 C11.42528269 230.74025107 9.8513359 230.76065779 8.27758789 230.7902832 C-7.99938194 231.09655647 -7.99938194 231.09655647 -14.6875 226.43359375 C-19.55505283 221.31642282 -19.8371258 217.06261612 -19.84140015 210.2681427 C-19.8457824 209.42592861 -19.85016465 208.58371453 -19.8546797 207.7159788 C-19.86807397 204.88332282 -19.87424799 202.05069795 -19.88037109 199.21801758 C-19.88827157 197.19117085 -19.89654049 195.16432553 -19.90515137 193.13748169 C-19.93137805 186.47187647 -19.94667981 179.80626495 -19.9609375 173.140625 C-19.96629694 170.84668155 -19.97167445 168.55273815 -19.97706985 166.25879478 C-19.99869966 156.71698584 -20.01743656 147.17517859 -20.02869225 137.63335133 C-20.0449325 123.95553389 -20.07811125 110.27800048 -20.13509309 96.60029012 C-20.17378632 86.9848975 -20.19332423 77.36958086 -20.19861281 67.75411242 C-20.20226712 62.01037739 -20.2142973 56.26694525 -20.24671555 50.52329445 C-20.27678494 45.11828073 -20.28311181 39.71375337 -20.27133179 34.30867386 C-20.27111096 32.32695516 -20.27942358 30.34521397 -20.29698563 28.36357307 C-20.31969542 25.65311942 -20.31137421 22.9444267 -20.29550171 20.23396301 C-20.3093838 19.45388581 -20.32326588 18.6738086 -20.33756864 17.87009269 C-20.25338601 12.01628414 -18.40651531 7.95699179 -14.6875 3.43359375 C-9.96892782 0.07227659 -5.58887608 -0.02099646 0 0 Z " fill="#D6FF38" transform="translate(771.6875,26.56640625)"/>
<path d="M0 0 C16.5 0 33 0 50 0 C50 77.55 50 155.1 50 235 C33.5 235 17 235 0 235 C0 157.45 0 79.9 0 0 Z " fill="#D6FF38" transform="translate(166,27)"/>
</svg>
